HIERARCHY
ROOT SpineBase
{
  OFFSET 0.000000 0.000000 0.000000
  CHANNELS 6 Xposition Yposition Zposition Zrotation Xrotation Yrotation
  JOINT SpineMid
  {
    OFFSET 0.000000 26.420088 0.000000
    CHANNELS 3 Zrotation Xrotation Yrotation
    JOINT SpineShoulder
    {
      OFFSET 0.054854 19.724629 -0.630541
      CHANNELS 3 Zrotation Xrotation Yrotation
      JOINT Neck
      {
        OFFSET -0.004323 6.554602 -0.477700
        CHANNELS 3 Zrotation Xrotation Yrotation
        JOINT Head
        {
          OFFSET -3.423511 11.433237 1.138697
          CHANNELS 3 Zrotation Xrotation Yrotation
          End Site
          {
            OFFSET 0 0 0
          }
        }
      }
      JOINT ShoulderLeft
      {
        OFFSET -12.703592 -3.227397 4.380772
        CHANNELS 3 Zrotation Xrotation Yrotation
        JOINT ElbowLeft
        {
          OFFSET -2.357252 -18.425720 8.838622
          CHANNELS 3 Zrotation Xrotation Yrotation
          JOINT WristLeft
          {
            OFFSET 1.172851 1.542058 -24.182307
            CHANNELS 3 Zrotation Xrotation Yrotation
            JOINT HandLeft
            {
              OFFSET 1.124509 -1.424632 -8.453060
              CHANNELS 3 Zrotation Xrotation Yrotation
              JOINT HandTipLeft
              {
                OFFSET -3.005926 -0.798125 -3.687090
                CHANNELS 3 Zrotation Xrotation Yrotation
                End Site
                {
                  OFFSET 0 0 0
                }
              }
              JOINT ThumbLeft
              {
                OFFSET -0.323774 3.884067 -2.795052
                CHANNELS 3 Zrotation Xrotation Yrotation
                End Site
                {
                  OFFSET 0 0 0
                }
              }
            }
          }
        }
      }
      JOINT ShoulderRight
      {
        OFFSET 10.923038 -1.328868 -6.455451
        CHANNELS 3 Zrotation Xrotation Yrotation
        JOINT ElbowRight
        {
          OFFSET 7.365773 -19.225673 -2.773856
          CHANNELS 3 Zrotation Xrotation Yrotation
          JOINT WristRight
          {
            OFFSET -22.176128 -0.413816 -8.430549
            CHANNELS 3 Zrotation Xrotation Yrotation
            JOINT HandRight
            {
              OFFSET -6.569999 -0.975820 -0.915659
              CHANNELS 3 Zrotation Xrotation Yrotation
              JOINT HandTipRight
              {
                OFFSET -5.364996 -2.314546 -4.106358
                CHANNELS 3 Zrotation Xrotation Yrotation
                End Site
                {
                  OFFSET 0 0 0
                }
              }
              JOINT ThumbRight
              {
                OFFSET 0.390942 -2.616307 0.559706
                CHANNELS 3 Zrotation Xrotation Yrotation
                End Site
                {
                  OFFSET 0 0 0
                }
              }
            }
          }
        }
      }
    }
  }
  JOINT HipLeft
  {
    OFFSET -5.526057 0.358056 -1.078796
    CHANNELS 3 Zrotation Xrotation Yrotation
    JOINT KneeLeft
    {
      OFFSET 3.860131 -32.738180 2.799908
      CHANNELS 3 Zrotation Xrotation Yrotation
      JOINT AnkleLeft
      {
        OFFSET 5.641883 -33.017056 5.581908
        CHANNELS 3 Zrotation Xrotation Yrotation
        JOINT FootLeft
        {
          OFFSET -1.201722 -3.424605 -7.982495
          CHANNELS 3 Zrotation Xrotation Yrotation
          End Site
          {
            OFFSET 0 0 0
          }
        }
      }
    }
  }
  JOINT HipRight
  {
    OFFSET 5.189152 1.329978 -4.932580
    CHANNELS 3 Zrotation Xrotation Yrotation
    JOINT KneeRight
    {
      OFFSET 5.191059 -31.604390 -0.582708
      CHANNELS 3 Zrotation Xrotation Yrotation
      JOINT AnkleRight
      {
        OFFSET 3.386872 -32.938292 3.507752
        CHANNELS 3 Zrotation Xrotation Yrotation
        JOINT FootRight
        {
          OFFSET -4.360913 -5.891000 0.546786
          CHANNELS 3 Zrotation Xrotation Yrotation
          End Site
          {
            OFFSET 0 0 0
          }
        }
      }
    }
  }
}
MOTION
Frames: 6
Frame Time: 0.033333
21.821574 72.278394 367.517055 -0.000000 0.000000 19.781402 -0.000000 0.000000 -19.781402 -0.000000 0.000000 0.000000 -0.000000 0.000000 0.000000 0.000000 0.000000 0.000000 -0.000000 0.000000 0.000000 -0.000000 0.000000 0.000000 -0.000000 0.000000 0.000000 -0.000000 0.000000 0.000000 0.000000 0.000000 0.000000 0.000000 0.000000 0.000000 -0.000000 0.000000 0.000000 -0.000000 0.000000 0.000000 -0.000000 0.000000 0.000000 -0.000000 0.000000 0.000000 0.000000 0.000000 0.000000 0.000000 0.000000 0.000000 -0.000000 0.000000 -19.781402 -0.000000 0.000000 0.000000 -0.000000 0.000000 0.000000 0.000000 0.000000 0.000000 -0.000000 0.000000 -19.781402 -0.000000 0.000000 0.000000 -0.000000 0.000000 0.000000 0.000000 0.000000 0.000000
21.833220 72.286352 367.531227 -0.028505 -0.045538 19.818913 0.042257 0.033176 -19.818936 -0.000000 0.000000 0.000000 -0.000000 0.000000 0.000000 0.000000 0.000000 0.000000 -0.000000 0.000000 0.000000 -0.166515 -1.618210 -1.130992 -0.379511 2.056984 4.427025 -2.522201 4.077124 -4.316344 0.000000 0.000000 0.000000 0.000000 0.000000 0.000000 -0.000000 0.000000 0.000000 0.864961 -0.330934 0.214552 -2.372281 0.359960 0.973432 2.073472 -1.057188 0.132310 0.000000 0.000000 0.000000 0.000000 0.000000 0.000000 0.042257 0.033176 -19.818936 -0.000000 0.000000 0.000000 1.302680 -2.409777 -2.284255 0.000000 0.000000 0.000000 0.042257 0.033176 -19.818936 -1.208973 -1.278667 -0.273700 1.225646 18.959630 -13.078583 0.000000 0.000000 0.000000
21.841420 72.294526 367.552261 -0.059127 -0.082875 19.880678 0.083786 0.057829 -19.880763 -0.000000 0.000000 0.000000 -0.000000 0.000000 0.000000 0.000000 0.000000 0.000000 -0.000000 0.000000 0.000000 -0.333040 -3.089697 -2.021465 -0.860453 4.196668 8.803616 -3.661654 6.768555 -8.396444 0.000000 0.000000 0.000000 0.000000 0.000000 0.000000 -0.000000 0.000000 0.000000 1.472843 -0.561547 0.439889 -4.362481 0.679466 1.431137 3.712957 -1.820346 0.485002 0.000000 0.000000 0.000000 0.000000 0.000000 0.000000 0.083786 0.057829 -19.880763 -0.000000 0.000000 0.000000 2.330437 -4.575257 -4.147534 0.000000 0.000000 0.000000 0.083786 0.057829 -19.880763 -2.138200 -2.263052 -0.502603 5.644651 33.521076 -24.925127 0.000000 0.000000 0.000000
21.846174 72.302917 367.580159 -0.091875 -0.112026 19.966705 0.124606 0.073919 -19.966875 -0.000000 0.000000 0.000000 -0.000000 0.000000 0.000000 0.000000 0.000000 0.000000 0.924169 0.819985 0.333293 -1.442583 -5.222924 -3.021561 -1.450978 6.437035 13.081706 -3.879771 8.180030 -12.381666 0.000000 0.000000 0.000000 0.000000 0.000000 0.000000 -0.000000 0.000000 0.000000 1.823504 -0.693373 0.673025 -5.961367 0.976814 1.360846 4.931742 -2.268254 1.061638 0.000000 0.000000 0.000000 0.000000 0.000000 0.000000 0.124606 0.073919 -19.966875 -0.000000 0.000000 0.000000 3.098368 -6.430136 -5.569262 0.000000 0.000000 0.000000 0.124606 0.073919 -19.966875 -2.787923 -2.959897 -0.673243 10.742562 41.855518 -33.786702 0.000000 0.000000 0.000000
21.847481 72.311525 367.614920 -0.126758 -0.132999 20.076981 0.164712 0.081403 -20.077245 -0.000000 0.000000 0.000000 -0.000000 0.000000 0.000000 0.000000 0.000000 0.000000 1.344635 1.251254 0.473458 -2.020533 -6.816585 -3.582791 -2.155913 8.790107 17.201389 -3.539532 8.397281 -16.275029 0.000000 0.000000 0.000000 0.000000 0.000000 0.000000 -0.000000 0.000000 0.000000 1.916545 -0.727992 0.912379 -7.160251 1.265837 0.760187 5.731913 -2.393327 1.860467 0.000000 0.000000 0.000000 0.000000 0.000000 0.000000 0.164712 0.081403 -20.077245 -0.000000 0.000000 0.000000 3.625886 -7.928056 -6.539756 0.000000 0.000000 0.000000 0.164712 0.081403 -20.077245 -3.158497 -3.374848 -0.776392 14.298037 45.459729 -38.690658 0.000000 0.000000 0.000000
21.845341 72.320349 367.656544 -0.163788 -0.145801 20.211473 0.204075 0.080236 -20.211824 -0.000000 0.000000 0.000000 -0.000000 0.000000 0.000000 0.000000 0.000000 0.000000 1.832827 1.776767 0.629479 -2.644320 -8.349251 -3.923245 -2.973135 11.259762 21.092372 -2.937219 7.483749 -20.001491 0.000000 0.000000 0.000000 0.000000 0.000000 0.000000 -0.000000 0.000000 0.000000 1.751094 -0.666905 1.157705 -7.949297 1.554766 -0.364568 6.102877 -2.200948 2.874914 0.000000 0.000000 0.000000 0.000000 0.000000 0.000000 0.590541 0.840602 -20.106447 -0.101547 -0.846870 -0.109233 3.931629 -9.039909 -7.056253 0.000000 0.000000 0.000000 0.204075 0.080236 -20.211824 -3.249875 -3.511255 -0.806690 15.293925 45.572317 -39.225708 0.000000 0.000000 0.000000
